<?xml version="1.0" encoding="UTF-8"?>
<!DOCTYPE svg PUBLIC "-//W3C//DTD SVG 1.1//EN" "http://www.w3.org/Graphics/SVG/1.1/DTD/svg11.dtd">
<!-- Creator: CorelDRAW 2019 (64-Bit) -->
<svg xmlns="http://www.w3.org/2000/svg" xml:space="preserve" width="185.06mm" height="97.5369mm" version="1.1" style="shape-rendering:geometricPrecision; text-rendering:geometricPrecision; image-rendering:optimizeQuality; fill-rule:evenodd; clip-rule:evenodd"
viewBox="0 0 185.06 97.5368"
 xmlns:xlink="http://www.w3.org/1999/xlink"
 xmlns:xodm="http://www.corel.com/coreldraw/odm/2003">
 <defs>
  <style type="text/css">
   <![CDATA[
    .fil0 {fill:#C72131}
    .fil1 {fill:#11495E}
   ]]>
  </style>
 </defs>
 <g id="Layer_x0020_1">
  <metadata id="CorelCorpID_0Corel-Layer"/>
  <g id="_886053424">
   <polygon class="fil0" points="52.3415,96.9617 60.452,96.9617 60.452,64.806 52.3415,64.806 "/>
   <path class="fil0" d="M125.8883 74.0308c-0.3312,-0.1739 -2.9434,-1.7262 -6.8253,-1.7262 -5.2477,0 -8.8907,3.6526 -8.8907,8.5807 0,4.7776 3.4827,8.5779 8.8907,8.5779 3.814,0 6.466,-1.5106 6.8253,-1.7l0 8.6361c-1.0142,0.2807 -3.7866,1.1376 -7.4023,1.1376 -9.1287,0 -17.1208,-6.2911 -17.1208,-16.6516 0,-9.5988 7.2412,-16.6408 17.1208,-16.6408 3.8178,0 6.6427,0.9248 7.4023,1.1511l0 8.6352z"/>
   <path class="fil0" d="M41.1932 74.0308c-0.3361,-0.1739 -2.9464,-1.7262 -6.8302,-1.7262 -5.2468,0 -8.8868,3.6526 -8.8868,8.5807 0,4.7776 3.4787,8.5779 8.8868,8.5779 3.8177,0 6.4669,-1.5106 6.8302,-1.7l0 8.6361c-1.0181,0.2807 -3.7897,1.1376 -7.4063,1.1376 -9.1296,0 -17.1218,-6.2911 -17.1218,-16.6516 0,-9.5988 7.2452,-16.6408 17.1218,-16.6408 3.8178,0 6.6417,0.9248 7.4063,1.1511l0 8.6352z"/>
   <path class="fil0" d="M151.4073 72.4231c-4.8087,0 -8.3837,3.7876 -8.3837,8.4622 0,4.6853 3.575,8.4574 8.3837,8.4574 4.8173,0 8.3913,-3.7721 8.3913,-8.4574 0,-4.6746 -3.574,-8.4622 -8.3913,-8.4622zm17.0012 8.4622l0 0c0,9.1957 -7.112,16.6516 -17.0012,16.6516 -9.8816,0 -16.975,-7.4559 -16.975,-16.6516 0,-9.185 7.0934,-16.6408 16.975,-16.6408 9.8892,0 17.0012,7.4558 17.0012,16.6408z"/>
   <path class="fil0" d="M91.2314 72.1151c-0.1205,-0.0408 -3.5342,-0.9772 -6.3436,-0.9772 -3.2563,0 -5.0205,1.0831 -5.0205,2.6365 0,1.9564 2.3821,2.6384 3.7217,3.0668l2.2342 0.7092c5.2614,1.6738 7.6695,5.2749 7.6695,9.1957 0,8.0736 -7.1069,10.7908 -13.3174,10.7908 -4.3103,0 -8.3544,-0.7908 -8.7565,-0.8695l0 -7.4034c0.71,0.1759 4.1237,1.193 7.6558,1.193 4.0441,0 5.9054,-1.1784 5.9054,-2.9989 0,-1.6349 -1.6067,-2.5704 -3.6292,-3.2009 -0.479,-0.1739 -1.2299,-0.4002 -1.7272,-0.5625 -4.5231,-1.4319 -8.2865,-4.0839 -8.2865,-9.4094 0,-6.0122 4.4997,-10.0544 11.9818,-10.0544 3.95,0 7.6735,0.9627 7.9125,1.0307l0 6.8535z"/>
   <path class="fil1" d="M8.0602 30.2547c0,-2.2207 -1.8099,-4.0169 -4.0296,-4.0169 -2.2247,0 -4.0306,1.7962 -4.0306,4.0169l0 8.4341c0,2.2343 1.8059,4.0286 4.0306,4.0286 2.2197,0 4.0296,-1.7943 4.0296,-4.0286l0 -8.4341z"/>
   <path class="fil1" d="M30.1886 19.1715c0,-2.211 -1.8097,-4.0169 -4.0304,-4.0169 -2.2236,0 -4.0297,1.8059 -4.0297,4.0169l0 19.5173c0,2.2343 1.8061,4.0286 4.0297,4.0286 2.2207,0 4.0304,-1.7943 4.0304,-4.0286l0 -19.5173z"/>
   <path class="fil1" d="M52.3173 4.017c0,-2.2246 -1.81,-4.017 -4.0307,-4.017 -2.2236,0 -4.0295,1.7924 -4.0295,4.017l0 42.7037c0,2.2206 1.8059,4.0178 4.0295,4.0178 2.2207,0 4.0307,-1.7972 4.0307,-4.0178l0 -42.7037z"/>
   <path class="fil1" d="M74.4457 19.1715c0,-2.211 -1.8097,-4.0169 -4.0304,-4.0169 -2.2237,0 -4.0297,1.8059 -4.0297,4.0169l0 19.5173c0,2.2343 1.806,4.0286 4.0297,4.0286 2.2207,0 4.0304,-1.7943 4.0304,-4.0286l0 -19.5173z"/>
   <path class="fil1" d="M96.5459 30.2547c0,-2.2207 -1.7952,-4.0169 -4.0024,-4.0169 -2.2235,0 -4.0294,1.7962 -4.0294,4.0169l0 8.4341c0,2.2343 1.8059,4.0286 4.0294,4.0286 2.2072,0 4.0024,-1.7943 4.0024,-4.0286l0 -8.4341z"/>
   <path class="fil1" d="M96.5604 30.2547c0,-2.2207 -1.8097,-4.0169 -4.0304,-4.0169 -2.2206,0 -4.0304,1.7962 -4.0304,4.0169l0 8.4341c0,2.2343 1.8098,4.0286 4.0304,4.0286 2.2207,0 4.0304,-1.7943 4.0304,-4.0286l0 -8.4341z"/>
   <path class="fil1" d="M118.688 19.1715c0,-2.211 -1.8088,-4.0169 -4.0295,-4.0169 -2.2207,0 -4.0306,1.8059 -4.0306,4.0169l0 19.5173c0,2.2343 1.8099,4.0286 4.0306,4.0286 2.2207,0 4.0295,-1.7943 4.0295,-4.0286l0 -19.5173z"/>
   <path class="fil1" d="M140.8166 4.017c0,-2.2246 -1.8088,-4.017 -4.0295,-4.017 -2.2207,0 -4.0306,1.7924 -4.0306,4.017l0 42.7037c0,2.2206 1.8099,4.0178 4.0306,4.0178 2.2207,0 4.0295,-1.7972 4.0295,-4.0178l0 -42.7037z"/>
   <path class="fil1" d="M162.9451 19.1715c0,-2.211 -1.8059,-4.0169 -4.0296,-4.0169 -2.2206,0 -4.0305,1.8059 -4.0305,4.0169l0 19.5173c0,2.2343 1.8099,4.0286 4.0305,4.0286 2.2237,0 4.0296,-1.7943 4.0296,-4.0286l0 -19.5173z"/>
   <path class="fil1" d="M185.0465 30.2547c0,-2.2207 -1.7923,-4.0169 -4.0025,-4.0169 -2.2207,0 -4.0304,1.7962 -4.0304,4.0169l0 8.4341c0,2.2343 1.8097,4.0286 4.0304,4.0286 2.2102,0 4.0025,-1.7943 4.0025,-4.0286l0 -8.4341z"/>
   <polygon class="fil0" points="180.4166,92.733 180.4166,93.2401 178.9836,93.2401 178.9836,96.9617 178.3949,96.9617 178.3949,93.2401 176.9476,93.2401 176.9476,92.733 "/>
   <polygon class="fil0" points="180.7215,92.733 181.6463,92.733 182.9045,96.1971 182.9317,96.1971 184.1488,92.733 185.06,92.733 185.06,96.9617 184.4558,96.9617 184.4558,93.4926 184.4296,93.4926 183.1443,96.9617 182.5955,96.9617 181.3384,93.4926 181.3103,93.4926 181.3103,96.9617 180.7215,96.9617 "/>
  </g>
 </g>
</svg>
