<svg version="1.1" xmlns="http://www.w3.org/2000/svg" xmlns:xlink="http://www.w3.org/1999/xlink" width="500.000000pt" height="499.000000pt" viewBox="0,0,256,255.48438"><g fill="#ffffff" fill-rule="nonzero" stroke="none" stroke-width="1" stroke-linecap="butt" stroke-linejoin="miter" stroke-miterlimit="10" stroke-dasharray="" stroke-dashoffset="0" font-family="none" font-weight="none" font-size="none" text-anchor="none" style="mix-blend-mode: normal"><g transform="translate(-1.792,2.41017) scale(0.512,0.512)"><g transform="translate(0,499) scale(0.1,-0.1)"><path d="M1879,3230c-157,-19 -252,-57 -473,-190c-190,-115 -361,-180 -606,-230c-131,-27 -234,-57 -282,-81c-59,-30 -98,-95 -68,-114c5,-3 56,13 112,36c138,55 262,95 383,122c94,20 125,22 500,21c427,0 403,2 840,-63c247,-36 355,-45 375,-31c13,9 13,11 0,20c-8,5 -31,12 -50,15c-74,12 -83,18 -125,91c-57,102 -83,131 -169,199c-88,69 -97,91 -35,81c67,-11 114,-41 222,-145c181,-174 384,-280 548,-284c65,-2 79,5 56,30c-18,20 -39,31 -178,96c-52,24 -135,71 -185,105c-173,118 -307,217 -312,231c-4,12 36,13 264,7c257,-7 467,-19 527,-32c58,-12 23,-24 -70,-24c-106,0 -211,-14 -226,-29c-7,-7 83,-10 264,-9c381,2 574,-25 733,-103c56,-27 156,-110 156,-129c0,-14 -320,-22 -599,-15c-153,4 -295,5 -315,1c-39,-7 -47,-21 -18,-30c43,-14 278,-27 637,-36c215,-6 401,-12 415,-15c14,-2 68,-9 120,-16c52,-6 155,-22 228,-35c74,-13 138,-22 142,-19c22,14 -11,37 -128,91c-70,31 -211,99 -314,151c-363,180 -472,213 -883,263c-513,62 -1251,97 -1486,70zM2012,3105c98,-21 224,-83 291,-145c59,-54 117,-135 117,-165c0,-22 -24,-18 -140,23c-47,16 -121,34 -165,40c-149,21 -408,35 -554,30c-80,-2 -154,-3 -163,0c-70,15 74,143 210,187c137,44 284,55 404,30z"></path><path d="M3150,2436c-119,-26 -202,-92 -239,-190c-56,-150 4,-303 147,-373c52,-26 66,-28 172,-28c105,0 119,2 166,27c79,42 81,49 29,97c-24,22 -47,41 -50,41c-3,0 -22,-9 -42,-20c-77,-41 -184,-19 -224,47c-32,51 -31,155 2,205c45,69 135,91 219,53l41,-18l44,43c35,35 42,46 33,58c-20,23 -81,50 -143,61c-70,13 -84,13 -155,-3z"></path><path d="M244,2431c-2,-2 -4,-134 -4,-293v-288h235h235v60v59l-142,3l-143,3v55v55l118,3l117,3v59v59l-117,3l-118,3l-3,48l-3,47h141h141l-3,63l-3,62h-223c-123,0 -226,-2 -228,-4z"></path><path d="M878,2434c-5,-4 -8,-137 -8,-296v-288h143c90,0 165,6 205,15c148,35 224,131 224,281c-1,143 -64,227 -200,268c-56,16 -352,33 -364,20zM1184,2292c54,-32 69,-63 69,-147c0,-60 -4,-81 -19,-102c-35,-47 -70,-66 -129,-71l-55,-4v177v178l53,-7c28,-4 65,-15 81,-24z"></path><path d="M2215,2432c-3,-3 -5,-135 -5,-294v-288h95h95v100v100h43l42,-1l60,-99l60,-100h103h103l-52,73c-28,39 -63,89 -76,109l-26,38l51,47c56,53 69,91 57,168c-8,59 -56,107 -128,128c-51,15 -409,31 -422,19zM2560,2307c21,-11 25,-20 25,-56c0,-59 -29,-81 -119,-88l-66,-6v82v81h68c37,0 78,-6 92,-13z"></path><path d="M3676,2348c-19,-51 -57,-154 -85,-228c-27,-74 -61,-165 -75,-202l-26,-68h95h95l17,60l18,60h107h107l17,-60l17,-60h98h99l-19,48c-10,26 -58,153 -106,282c-48,129 -92,241 -98,248c-6,8 -43,12 -117,12h-108zM3858,2211c18,-61 32,-112 32,-115c0,-3 -32,-6 -71,-6c-61,0 -70,2 -65,16c3,9 18,61 33,115c14,55 29,99 33,99c4,0 21,-49 38,-109z"></path><path d="M4240,2146v-296h90h89l3,98l3,97l40,3l40,2l60,-97l60,-98l103,-3c56,-1 102,0 102,3c0,3 -31,51 -70,106c-38,55 -70,105 -70,112c1,7 15,21 32,32c46,29 70,67 75,118c7,58 -10,106 -50,144c-55,53 -110,65 -319,71l-188,5zM4563,2309c46,-12 64,-48 47,-90c-15,-36 -49,-49 -125,-49h-65v68c0,38 3,72 7,75c10,11 94,8 136,-4z"></path><path d="M1590,2140v-290h235h235v60v60h-145h-146l3,58l3,57l118,3l117,3v59v60h-120h-120v50v50h140h140v60v60h-230h-230z"></path></g></g></g></svg>