<svg version="1.1" xmlns="http://www.w3.org/2000/svg" xmlns:xlink="http://www.w3.org/1999/xlink" width="512.000000pt" height="512.000000pt" viewBox="0,0,256,256"><g fill="#ffffff" fill-rule="nonzero" stroke="none" stroke-width="1" stroke-linecap="butt" stroke-linejoin="miter" stroke-miterlimit="10" stroke-dasharray="" stroke-dashoffset="0" font-family="none" font-weight="none" font-size="none" text-anchor="none" style="mix-blend-mode: normal"><g transform="translate(-0.14933,-0.48721) scale(0.5,0.5)"><g transform="translate(0,512) scale(0.1,-0.1)"><path d="M3539,4098c-72,-44 -288,-147 -384,-183c-218,-81 -352,-102 -545,-85c-363,31 -371,32 -478,20c-292,-31 -593,-131 -757,-252c-150,-110 -244,-218 -416,-473c-59,-88 -118,-172 -131,-187c-13,-15 -180,-144 -372,-287c-193,-144 -345,-261 -338,-261c6,0 108,31 227,69c118,38 215,66 215,62c0,-4 -16,-23 -36,-42c-39,-37 -194,-227 -292,-356l-62,-82l38,-48c61,-76 152,-154 217,-185c69,-32 133,-36 195,-12c39,16 41,16 122,-19c80,-34 189,-67 222,-67c10,0 -9,33 -59,101c-69,94 -73,103 -57,115c25,19 42,17 132,-16c71,-26 81,-28 76,-12c-2,9 -8,47 -12,84l-6,67l81,-29c45,-17 84,-30 87,-30c6,0 0,63 -12,121c-4,22 0,28 26,39c17,7 33,16 35,20c3,4 45,159 94,345c49,185 91,338 93,340c27,23 738,502 738,496c0,-20 -85,-214 -122,-276c-25,-42 -77,-106 -132,-160c-95,-94 -164,-138 -294,-185c-110,-40 -166,-137 -196,-341c-25,-169 -34,-154 86,-154c95,0 108,-2 171,-32c160,-76 297,-279 297,-440c0,-65 -20,-101 -94,-170l-67,-63h-64h-64l-5,-32c-3,-18 -7,-44 -8,-58c-3,-24 -7,-25 -70,-28l-68,-3v-49c0,-86 -48,-96 -189,-40c-28,11 -69,31 -92,46l-41,26l7,-44c8,-52 61,-187 81,-209c19,-22 182,-101 264,-130c49,-17 88,-23 160,-23c91,-1 98,1 167,36c40,21 134,77 210,126c76,49 194,125 263,169c157,101 390,235 485,279c49,22 279,88 701,199c345,91 629,166 630,168c5,6 163,421 161,423c-2,2 -205,-50 -452,-116c-248,-65 -462,-122 -478,-125l-27,-7l2,193l3,194l559,147c307,81 560,149 562,151c8,7 165,419 162,422c-2,2 -289,-72 -638,-165c-349,-92 -638,-166 -642,-163c-11,6 -10,371 1,377c5,4 326,89 713,191c387,102 712,189 722,193c13,6 41,67 92,198c74,190 83,224 63,224c-6,0 -346,-88 -755,-196c-410,-108 -747,-195 -749,-192c-3,2 11,33 30,69c19,36 41,92 50,124c16,63 21,200 7,209c-5,3 -24,-4 -43,-16zM2879,2928c0,-7 -22,-65 -47,-128l-47,-115l-140,-38c-77,-20 -145,-36 -152,-35c-7,2 5,45 34,123c25,66 47,122 49,124c3,4 273,78 292,80c6,0 12,-5 11,-11zM3180,2686c0,-10 -92,-242 -99,-249c-12,-12 -301,-86 -301,-77c0,8 89,243 95,248c3,3 283,79 298,81c4,1 7,-1 7,-3zM2729,2474c-26,-70 -50,-128 -51,-129c-6,-4 -285,-75 -295,-75c-11,0 71,226 89,245c8,10 257,81 290,84c13,1 8,-22 -33,-125z"></path></g></g></g></svg>